<?xml version="1.0" encoding="utf-8"?>
<!-- Generator: Adobe Illustrator 16.0.0, SVG Export Plug-In . SVG Version: 6.00 Build 0)  -->
<!DOCTYPE svg PUBLIC "-//W3C//DTD SVG 1.1//EN" "http://www.w3.org/Graphics/SVG/1.1/DTD/svg11.dtd">
<svg version="1.1" id="Layer_1" xmlns="http://www.w3.org/2000/svg" xmlns:xlink="http://www.w3.org/1999/xlink" x="0px" y="0px"
	 width="3000px" height="3000px" viewBox="0 0 3000 3000" enable-background="new 0 0 3000 3000" xml:space="preserve">
<g>
	<path fill="#0099FF" d="M643.693,1181.968c4.875-0.724,9.711-1.69,14.49-2.897C653.619,1180.012,648.621,1181.026,643.693,1181.968
		z"/>
	<g id="SIMPLE_custom">
		<g>
			<path fill="#0099FF" d="M1251.285,1477.576c61.73,14.998,94.189,37.169,94.189,85.93c0,55.064-42.964,87.596-104.26,87.596
				c-42.524,0.364-83.792-14.401-116.433-41.66c-3.041-2.601-3.397-7.175-0.796-10.216l0,0l21.736-25.648
				c2.577-3.061,7.148-3.453,10.209-0.875c0.002,0.002,0.005,0.004,0.007,0.005c26.156,21.302,52.746,33.329,86.944,33.329
				c31.663,0,51.731-14.491,51.731-37.096c0-21.303-11.665-32.532-65.86-45.066c-62.165-14.998-97.232-33.4-97.232-87.596
				c0-50.717,41.733-85.133,99.696-85.133c35.89-0.704,70.993,10.563,99.768,32.025c3.134,2.369,3.809,6.804,1.521,9.998
				l-19.272,27.17c-2.323,3.258-6.847,4.017-10.106,1.693c-0.012-0.009-0.025-0.019-0.038-0.027
				c-21.248-16.01-46.946-25.022-73.54-25.793c-30.068,0-47.529,15.433-47.529,35.067
				C1182.31,1454.247,1195.642,1464.535,1251.285,1477.576z"/>
			<path fill="#0099FF" d="M1510.16,1362.159v277.567c0,4.001-3.244,7.245-7.245,7.245h-36.879c-4.001,0-7.245-3.244-7.245-7.245
				v-277.567c0-4.001,3.244-7.245,7.245-7.245h36.879C1506.916,1354.914,1510.16,1358.158,1510.16,1362.159z"/>
			<path fill="#0099FF" d="M1763.166,1549.885l-61.223-91.653c-2.231-3.321-6.733-4.204-10.056-1.972
				c-2.007,1.349-3.209,3.61-3.203,6.029v177.438c0,4.001-3.244,7.245-7.245,7.245h-36.228c-4.001,0-7.244-3.244-7.244-7.245
				v-277.567c0-4.001,3.243-7.245,7.244-7.245h43.473c2.463,0.004,4.756,1.259,6.086,3.332l80.64,125.344
				c2.172,3.361,6.657,4.326,10.019,2.155c0.862-0.558,1.597-1.292,2.153-2.155l80.642-125.344c1.33-2.073,3.622-3.328,6.086-3.332
				h43.472c4.001,0,7.245,3.244,7.245,7.245v277.567c0,4.001-3.244,7.245-7.245,7.245h-36.807c-4.001,0-7.245-3.244-7.245-7.245
				v-178.379c-0.104-4.001-3.431-7.159-7.431-7.056c-2.258,0.059-4.36,1.167-5.683,2.998l-61.947,92.522
				c-1.351,1.996-3.604,3.191-6.014,3.188h-23.476C1766.783,1553.021,1764.532,1551.854,1763.166,1549.885z"/>
			<path fill="#0099FF" d="M2159.63,1553.072h-50.718c-4.001,0-7.245,3.244-7.245,7.246v79.698c0,4.002-3.244,7.244-7.245,7.244
				h-36.807c-4.001,0-7.245-3.242-7.245-7.244v-277.857c0-4.001,3.244-7.245,7.245-7.245h107.884
				c67.961,0,110.925,38.4,110.925,98.028C2276.424,1518.875,2223.896,1553.072,2159.63,1553.072z M2161.296,1401.646h-52.384
				c-4.001,0-7.245,3.244-7.245,7.245v90.712c0,4.001,3.244,7.245,7.245,7.245h52.384c38.835,0,63.034-21.301,63.034-52.601
				C2224.33,1419.614,2199.696,1401.646,2161.296,1401.646z"/>
			<path fill="#0099FF" d="M2373.801,1354.914h36.734c4.001,0,7.245,3.244,7.245,7.245v230.835c0,4.002,3.243,7.246,7.244,7.246
				h139.11c4.001,0,7.246,3.244,7.246,7.245v32.241c0,4.001-3.245,7.245-7.246,7.245h-190.334c-4.002,0-7.245-3.244-7.245-7.245
				v-277.567C2366.556,1358.158,2369.799,1354.914,2373.801,1354.914z"/>
			<path fill="#0099FF" d="M2864.453,1400.849h-152.876c-4.002,0-7.246,3.244-7.246,7.246v61.439c0,4.002,3.244,7.246,7.246,7.246
				h147.441c4.002,0,7.246,3.244,7.246,7.245v31.228c0,4.001-3.244,7.244-7.246,7.244h-147.441c-4.002,0-7.246,3.244-7.246,7.245
				v63.904c0,4.001,3.244,7.245,7.246,7.245h152.876c4.001,0,7.245,3.244,7.245,7.245v31.444c0,4.002-3.244,7.246-7.245,7.246
				H2660.28c-4.001,0-7.245-3.244-7.245-7.246v-277.422c0-4.001,3.244-7.245,7.245-7.245h204.173c4.001,0,7.245,3.244,7.245,7.245
				v31.444C2871.698,1397.605,2868.454,1400.849,2864.453,1400.849z"/>
		</g>
	</g>
	<path fill="#0099FF" d="M845.186,1401.79c-13.79-48.002-43.475-89.898-84.19-118.822c-10.502-7.484-21.657-14.007-33.328-19.49
		c-1.948-0.978-3.505-2.586-4.42-4.564c-5.797-11.485-12.508-22.484-20.07-32.894c-29.62-40.226-71.986-69.235-120.199-82.307
		c-17.677-4.547-35.872-6.764-54.123-6.594c-31.33,0.285-62.253,7.121-90.784,20.07c-11.885,5.487-23.277,11.984-34.053,19.417
		c-1.534,0.987-3.319,1.516-5.144,1.521l0,0c-5.651-0.435-11.303-0.579-16.592-0.579c-7.458,0.051-14.908,0.51-22.315,1.376
		c-24.846,2.711-49.05,9.62-71.584,20.432c-22.217,10.618-42.457,24.952-59.846,42.386
		c-44.027,45.516-66.287,107.807-61.078,170.917c0.138,2.147-0.421,4.281-1.594,6.086c-7.109,10.758-13.336,22.073-18.621,33.836
		c-42.406,94.088-11.707,205.038,73.033,263.945c10.521,7.516,21.7,14.063,33.401,19.563c1.912,0.99,3.46,2.563,4.419,4.492
		c5.706,11.521,12.396,22.525,19.997,32.895c14.761,20.109,32.844,37.556,53.471,51.586c20.334,13.961,42.901,24.35,66.729,30.721
		c17.723,4.57,35.965,6.812,54.267,6.665c31.29-0.295,62.169-7.157,90.639-20.142c11.886-5.459,23.278-11.932,34.053-19.345
		c1.547-0.952,3.329-1.453,5.145-1.449c5.144,0,10.65,0.507,16.881,0.507c111.618,0.043,204.727-85.294,214.389-196.492
		c1.052-12.852,1.052-25.767,0-38.618c-0.193-2.175,0.37-4.351,1.594-6.158c7.126-10.71,13.331-22.005,18.547-33.764
		c12.633-28.669,19.101-59.672,18.983-91.001C852.688,1437.662,850.129,1419.436,845.186,1401.79z M473.863,1178.201
		c17.841-5.516,36.391-8.396,55.064-8.55c15.49-0.16,30.934,1.716,45.936,5.579c33.202,8.924,63.292,26.852,86.944,51.804
		c2.332,2.464,2.986,6.075,1.666,9.201c-1.351,3.098-4.375,5.133-7.752,5.217c-0.431,0.083-0.874,0.083-1.305,0
		c-8.047-1.179-16.147-1.953-24.272-2.318c-4.999,0-10.434-0.435-16.736,0c-17.688,0.191-35.329,1.839-52.746,4.927h-1.16
		c-1.94-0.052-3.815-0.711-5.361-1.884c-17.956-15.051-37.603-27.961-58.542-38.473c-7.246-3.609-14.669-6.85-22.243-9.708
		c-3.401-1.244-5.582-4.573-5.361-8.188C468.123,1182.278,470.482,1179.221,473.863,1178.201z M361.706,1266.158
		c12.656-19.604,28.302-37.109,46.37-51.876c1.555-1.268,3.5-1.959,5.507-1.956h1.304c23.053,3.466,45.437,10.455,66.367,20.722
		c6.014,2.898,12.316,6.376,19.417,10.578c2.844,1.759,4.4,5.015,3.985,8.332c-0.287,3.413-2.65,6.296-5.941,7.245
		c-8.404,2.608-16.374,5.217-24.199,7.825l-3.188,1.086c-16.809,5.435-28.98,9.274-41.225,12.752
		c-12.245,3.478-24.2,6.159-37.096,9.057l-4.637,0.726c-9.274,2.028-18.548,4.129-28.256,6.521c-0.649,0.099-1.308,0.099-1.957,0
		c-2.976,0.003-5.731-1.568-7.246-4.131c-1.444-2.589-1.444-5.742,0-8.331C353.953,1278.766,357.721,1272.316,361.706,1266.158z
		 M235.275,1574.592c-3.669,22.724-4.787,45.786-3.333,68.758c0.507,7.245,1.449,15.577,2.753,24.054
		c0.55,2.565-0.119,5.24-1.811,7.246c-1.651,1.833-3.982,2.907-6.449,2.971c-2.154,0.05-4.239-0.758-5.796-2.247
		c-52.381-46.976-72.613-120.151-51.804-187.363c1.365-4.521,6.136-7.078,10.656-5.714c2.456,0.742,4.448,2.547,5.429,4.917
		c2.971,7.246,6.376,14.998,9.999,22.171c10.552,20.489,23.359,39.735,38.183,57.382
		C234.943,1568.927,235.739,1571.79,235.275,1574.592z M258.678,1484.025c-2.826,8.984-5.651,18.113-8.549,27.677
		c-1.004,3.619-4.287,6.133-8.042,6.158c-2.954,0.063-5.717-1.456-7.245-3.984c-3.979-6.18-7.632-12.564-10.941-19.128
		c-10.997-21.487-18.459-44.605-22.098-68.468c-2.626-16.238-3.21-32.741-1.739-49.123c0-3.333,0.652-6.376,1.16-9.492
		c9.921-74.723,65.254-135.4,138.748-152.151c0.673-0.078,1.355-0.078,2.028,0c3.12,0.047,5.937,1.878,7.246,4.71
		c1.509,2.938,1.14,6.491-0.942,9.057c-4.782,6.086-9.492,12.68-14.491,19.635c-13.008,20.179-23.587,41.822-31.517,64.483
		c-0.332,1.006-1.106,1.808-2.101,2.173c-20.451,7.587-40.048,17.302-58.47,28.981l-2.536,1.739l-2.246,1.304l-1.449,1.015
		l-0.652,0.435l-1.087,0.725l-0.58,0.435l-1.376,0.869c-0.573,0.418-0.962,1.041-1.087,1.739c-0.042,0.797-0.042,1.595,0,2.391
		v2.464c0,1.642-0.169,3.285-0.507,4.927c-0.29,3.333-0.531,6.689-0.725,10.071c-0.193,3.381-0.193,6.834,0,10.36
		c0,0.941,0,1.884,0,2.754c-0.011,2,1.602,3.631,3.603,3.642c0.76,0.004,1.501-0.231,2.121-0.671
		c4.347-3.043,8.767-6.014,13.259-9.057l1.884-2.102c1.521-1.16,3.043-2.246,4.637-3.261l2.536-1.666
		c4.854-3.261,10.288-6.521,16.302-9.854c3.672-1.824,8.115-0.93,10.795,2.175c1.584,2.056,2.193,4.702,1.667,7.245
		c-2.028,8.404-3.695,16.52-5.361,24.344l-0.87,3.985c-2.681,13.621-5.724,28.111-9.347,42.022
		c-3.622,13.911-7.245,25.648-11.375,38.835L258.678,1484.025z M290.919,1716.31l-8.694-3.188l-1.087-0.653l-0.724-1.594
		c-8.991-22.365-14.395-46.01-16.012-70.062c-0.552-7.231-0.721-14.487-0.507-21.736c0.08-4.613,3.863-8.3,8.478-8.259
		c2.114-0.028,4.161,0.748,5.723,2.173c7.246,6.811,14.491,13.259,21.736,19.418l1.667,1.521
		c9.854,8.766,20.214,18.186,29.996,27.677c9.781,9.491,19.127,19.78,29.633,31.228c2.753,2.97,5.579,5.94,8.332,8.983l0.797,0.87
		c0.277,0.121,0.592,0.121,0.87,0c11.188-0.227,22.348-1.219,33.401-2.971c1.98-0.288,3.352-2.126,3.064-4.105
		c-0.114-0.779-0.477-1.5-1.036-2.053c-7.245-7.245-13.911-14.491-21.736-23.041l-3.405-3.115
		c-8.549-9.273-17.823-19.2-27.314-28.546c-9.491-9.347-18.62-17.606-27.895-25.938l-5.145-4.638
		c-11.085-9.925-21.736-19.2-32.313-29.633c-4.854-4.492-9.637-9.273-14.491-14.056c-2.275-2.422-3.198-5.815-2.463-9.057
		c1.521-6.521,3.115-12.969,4.854-19.2c3.768-14.057,7.897-27.169,11.448-38.4l2.318-7.68c4.13-13.403,8.115-26.083,11.375-39.124
		c3.261-13.042,6.593-27.967,9.854-43.473l1.304-6.376c2.391-11.085,5.072-23.691,8.333-36.733
		c1.376-5.724,3.043-12.172,5.072-19.055c0.976-3.248,3.501-5.8,6.738-6.811c5.651-1.739,10.94-3.188,15.795-4.564l3.116-0.87
		c15.36-3.984,29.778-7.245,43.037-10.216l5.361-1.231c13.187-3.043,25.576-5.94,37.965-9.347
		c12.39-3.405,26.083-7.897,38.617-11.883l4.058-1.304c13.114-4.347,27.17-8.984,42.096-13.404
		c8.767-2.463,15.867-4.347,22.46-5.868c16.31-3.92,32.905-6.537,49.63-7.825c6.086-0.507,12.172-0.796,18.114-0.796
		c4.854,0,9.708,0,14.491,0c24.001,1.253,47.651,6.316,70.062,14.997c0.986,0.326,1.78,1.066,2.173,2.028
		c9.089,22.343,14.544,45.996,16.157,70.063c0.435,6.811,0.58,13.983,0.435,21.736c0.062,4.681-3.683,8.526-8.364,8.588
		c-2.298,0.03-4.508-0.872-6.127-2.502c-7.245-6.812-14.49-13.26-21.736-19.418l-3.623-3.26c-9.853-8.84-19.2-17.316-28.039-25.866
		c-8.839-8.549-17.823-18.476-27.098-28.401l-2.753-2.971l-5.941-6.521l-2.463-2.681c-0.587-0.549-1.371-0.837-2.173-0.798
		c-10.922,0.258-21.815,1.251-32.604,2.971c-2.014,0.335-3.374,2.239-3.038,4.253c0.119,0.713,0.444,1.376,0.936,1.906
		c6.304,6.593,12.39,13.187,19.2,20.358l5.579,6.159c8.84,9.491,17.969,19.345,27.533,28.981
		c9.564,9.636,21.156,19.996,31.734,29.488l4.999,4.348l3.913,3.622c8.042,7.245,16.375,14.49,24.852,22.896
		c4.854,4.637,10.361,10.143,16.157,16.302c0.805,0.909,1.153,2.137,0.942,3.333c-1.666,7.752-3.55,15.287-5.579,22.532
		c-3.985,14.854-8.115,28.185-12.1,41.08l-0.942,3.043c-4.347,13.984-8.477,27.243-12.1,41.082
		c-3.623,13.838-6.375,27.17-9.781,43.472l-1.738,8.332c-2.391,11.158-4.927,22.75-7.898,34.923
		c-1.594,6.665-3.622,14.128-6.086,22.388c-0.399,1.14-1.312,2.025-2.463,2.391c-8.042,2.536-15.578,4.709-21.736,6.448
		c-15.36,4.058-29.851,7.246-42.892,10.289l-2.102,0.435c-13.549,3.115-27.604,6.303-41.443,10.071
		c-13.838,3.767-27.75,8.403-41.443,12.606h-0.434l-6.811,2.246c-11.521,3.768-23.402,7.68-36.226,11.375h-0.87
		c-5.072,1.521-12.825,3.695-21.736,5.724c-16.296,3.864-32.864,6.48-49.558,7.824c-6.014,0.508-12.172,0.798-18.114,0.798
		c-4.854,0-9.854,0-14.49,0l-9.202-0.652l-8.115-0.941h-2.463l-5.579-1.087c-0.458,0.044-0.919,0.044-1.376,0
		c-2.174,0-4.347-0.797-6.376-1.305c-4.057-0.724-8.115-1.666-12.027-2.681c-3.913-1.014-10.216-3.26-16.012-5.071H290.919z
		 M507.481,1821.294c-17.835,5.544-36.387,8.449-55.063,8.621c-15.513,0.137-30.978-1.738-46.008-5.578
		c-33.209-8.947-63.298-26.9-86.944-51.876c-2.337-2.434-2.994-6.027-1.667-9.129c1.343-3.095,4.38-5.109,7.752-5.145h1.377
		c7.897,1.159,16.084,2.028,24.127,2.464c5.579,0,11.303,0.434,17.026,0c17.544-0.23,35.04-1.903,52.311-5h1.449
		c1.881,0,3.712,0.61,5.217,1.739c18.034,14.782,37.671,27.492,58.542,37.893c7.246,3.333,14.491,6.594,22.243,9.564
		c3.396,1.313,5.599,4.619,5.506,8.259c0.044,3.741-2.371,7.068-5.94,8.188H507.481z M619.566,1733.409
		c-12.615,19.593-28.239,37.074-46.297,51.803c-1.481,1.307-3.388,2.028-5.362,2.029h-1.376
		c-23.095-3.344-45.518-10.313-66.439-20.649c-6.811-3.333-13.331-7.245-19.417-10.578c-4.03-2.537-5.24-7.86-2.703-11.89
		c1.079-1.715,2.729-2.995,4.658-3.615c7.246-2.246,14.491-4.492,21.736-7.246l6.014-1.883c14.491-4.71,27.605-9.057,41.081-12.896
		c11.883-3.261,24.055-6.087,36.879-8.912l5.145-1.231c9.129-2.029,18.403-4.13,28.039-6.449c0.674-0.07,1.354-0.07,2.029,0
		c2.984-0.032,5.753,1.546,7.245,4.131c1.418,2.57,1.418,5.688,0,8.26c-3.55,6.665-7.39,13.113-11.302,19.128H619.566z
		 M781.21,1622.483c0,3.26-0.653,6.447-1.232,9.563c-9.872,74.721-65.188,135.413-138.675,152.152c-0.65,0.075-1.306,0.075-1.956,0
		c-4.722-0.029-8.526-3.879-8.498-8.601c0.012-1.901,0.656-3.744,1.833-5.238c4.927-6.158,9.636-12.751,14.128-19.635
		c12.438-19.437,22.691-40.188,30.575-61.874c1.031-2.662,3.135-4.767,5.797-5.797c19.834-7.504,38.824-17.072,56.658-28.547
		l2.536-1.667l2.681-1.738l1.449-1.015l0.652-0.435l1.666-1.159l1.595-1.086c0.204-0.131,0.377-0.304,0.507-0.508l0,0
		c0.179-0.596,0.324-1.2,0.434-1.812c1.398-10.567,2.052-21.22,1.957-31.879c0.011-2.001-1.603-3.632-3.604-3.643
		c-0.76-0.004-1.502,0.231-2.121,0.672c-7.245,4.854-13.91,9.491-21.736,14.49c-5.579,3.768-11.954,7.681-18.91,11.521
		c-1.211,0.703-2.585,1.077-3.985,1.087c-2.643,0.057-5.162-1.122-6.81-3.188c-1.585-2.057-2.193-4.702-1.667-7.245
		c1.812-7.245,3.261-14.491,4.71-21.736l1.521-6.665c2.463-12.607,5.579-27.532,9.346-42.168
		c3.405-12.969,7.245-26.083,11.448-38.763l0.724-2.318c2.826-8.983,5.579-18.186,8.405-27.821c1.066-3.628,4.405-6.111,8.187-6.086
		c2.909,0.043,5.614,1.504,7.245,3.912c4.348,7.245,7.898,13.258,10.869,19.199c11.144,21.565,18.751,44.78,22.532,68.759
		C782.145,1589.497,782.729,1606.053,781.21,1622.483z M812.509,1511.774c-1.347,4.483-6.073,7.026-10.557,5.68
		c-2.494-0.749-4.506-2.603-5.455-5.027c-2.971-7.245-6.376-14.925-9.999-21.736c-10.63-20.499-23.483-39.767-38.328-57.454
		c-1.798-2.183-2.564-5.036-2.101-7.826c3.684-22.722,4.826-45.783,3.406-68.758c-0.725-8.55-1.594-16.736-2.826-24.127
		c-0.401-2.402,0.26-4.86,1.812-6.738c1.654-1.92,4.059-3.029,6.593-3.043c2.117-0.043,4.169,0.737,5.724,2.174
		C812.822,1371.887,832.987,1444.728,812.509,1511.774L812.509,1511.774z"/>
	<path fill="#0099FF" d="M845.548,1402.226c-13.885-48.055-43.701-89.958-84.553-118.823c-10.503-7.482-21.657-14.006-33.328-19.489
		c-1.948-0.979-3.505-2.588-4.42-4.564c-5.797-11.486-12.508-22.485-20.07-32.895c-29.62-40.225-71.986-69.235-120.199-82.307
		c-17.677-4.547-35.872-6.764-54.123-6.593c-31.33,0.284-62.253,7.12-90.784,20.069c-11.885,5.488-23.277,11.984-34.053,19.417
		c-1.534,0.987-3.319,1.516-5.144,1.521l0,0c-5.651-0.435-11.303-0.579-16.592-0.579c-7.458,0.051-14.908,0.51-22.315,1.377
		c-24.821,2.719-49.001,9.627-71.512,20.431c-22.216,10.619-42.456,24.953-59.846,42.386
		c-44.054,45.502-66.341,107.796-61.151,170.917c0.138,2.147-0.421,4.281-1.594,6.086c-7.109,10.758-13.336,22.073-18.621,33.836
		c-42.406,94.088-11.707,205.038,73.033,263.946c10.521,7.514,21.7,14.062,33.401,19.563c1.912,0.99,3.46,2.563,4.419,4.492
		c5.706,11.52,12.396,22.525,19.997,32.894c14.761,20.109,32.844,37.556,53.471,51.587c20.334,13.96,42.901,24.349,66.729,30.719
		c17.723,4.572,35.965,6.813,54.267,6.667c31.29-0.296,62.169-7.158,90.639-20.143c11.886-5.459,23.278-11.932,34.053-19.345
		c1.547-0.952,3.329-1.453,5.145-1.449c5.144,0,10.65,0.507,16.881,0.507c111.618,0.043,204.727-85.293,214.389-196.493
		c1.052-12.851,1.052-25.767,0-38.617c-0.193-2.175,0.37-4.35,1.594-6.158c7.125-10.71,13.33-22.005,18.547-33.764
		c12.633-28.668,19.101-59.672,18.983-91.001C852.806,1438.113,850.369,1419.887,845.548,1402.226z M473.863,1178.635
		c17.841-5.516,36.391-8.395,55.064-8.549c15.49-0.159,30.934,1.717,45.936,5.579c33.202,8.924,63.292,26.852,86.944,51.804
		c2.332,2.465,2.986,6.075,1.666,9.201c-1.351,3.098-4.375,5.133-7.752,5.217c-0.431,0.081-0.874,0.081-1.305,0
		c-8.047-1.179-16.147-1.953-24.272-2.318c-4.999,0-10.434-0.435-16.736,0c-17.688,0.19-35.329,1.839-52.746,4.928h-1.16
		c-1.94-0.053-3.815-0.711-5.361-1.885c-17.971-14.792-37.591-27.459-58.47-37.748c-7.246-3.608-14.669-6.849-22.243-9.709
		c-3.401-1.242-5.582-4.572-5.361-8.187C467.864,1183.19,470.251,1179.758,473.863,1178.635z M361.706,1266.593
		c12.657-19.604,28.303-37.107,46.37-51.876c1.555-1.268,3.5-1.959,5.507-1.956h1.304c23.053,3.467,45.437,10.455,66.367,20.722
		c6.014,2.898,12.316,6.375,19.417,10.578c2.844,1.759,4.4,5.015,3.985,8.332c-0.287,3.413-2.65,6.296-5.941,7.245
		c-8.404,2.608-16.374,5.217-24.199,7.825l-3.188,1.087c-16.809,5.434-28.98,9.273-41.225,12.751
		c-12.245,3.479-24.2,6.159-37.096,9.057l-4.637,1.087c-9.274,2.029-18.548,4.131-28.256,6.521c-0.648,0.101-1.308,0.101-1.957,0
		c-2.976,0.003-5.731-1.567-7.246-4.13c-1.444-2.59-1.444-5.742,0-8.332C353.953,1279.2,357.721,1272.752,361.706,1266.593z
		 M235.275,1575.026c-3.669,22.724-4.787,45.785-3.333,68.758c0.507,7.245,1.449,15.577,2.753,24.054
		c0.55,2.565-0.119,5.241-1.811,7.245c-1.651,1.834-3.982,2.908-6.449,2.971c-2.154,0.051-4.239-0.757-5.796-2.245
		c-52.38-46.976-72.613-120.152-51.804-187.364c1.365-4.521,6.136-7.077,10.656-5.713c2.456,0.742,4.448,2.546,5.429,4.916
		c2.971,7.245,6.376,14.998,9.999,22.171c10.552,20.489,23.359,39.736,38.183,57.383
		C234.943,1569.361,235.739,1572.226,235.275,1575.026z M258.678,1484.46c-2.826,8.984-5.651,18.113-8.549,27.677
		c-1.004,3.619-4.287,6.133-8.042,6.159c-2.954,0.063-5.717-1.457-7.245-3.985c-3.98-6.18-7.632-12.565-10.941-19.128
		c-10.872-21.509-18.21-44.627-21.736-68.468c-2.771-16.22-3.501-32.722-2.173-49.123c0-3.333,0.652-6.376,1.159-9.491
		c9.921-74.723,65.254-135.401,138.748-152.152c0.673-0.079,1.354-0.079,2.028,0c3.12,0.047,5.937,1.878,7.246,4.71
		c1.509,2.939,1.139,6.491-0.942,9.057c-4.782,6.086-9.492,12.679-14.491,19.635c-13.008,20.179-23.587,41.822-31.517,64.483
		c-0.332,1.007-1.106,1.808-2.101,2.174c-20.451,7.587-40.048,17.301-58.47,28.98c-3.26,2.102-6.375,4.275-9.563,6.449
		c-1.778,1.135-2.739,3.197-2.463,5.288c0,2.247-0.362,4.492-0.58,6.739c-0.217,2.245-0.507,6.737-0.652,10.07
		c-0.145,3.333,0,7.245,0,10.288v2.825c-0.01,2.001,1.603,3.632,3.603,3.643c0.76,0.004,1.502-0.23,2.121-0.672
		c4.347-3.043,8.767-6.014,13.259-9.057l2.608-1.811c1.521-1.159,3.043-2.247,4.637-3.261l2.536-1.666
		c4.854-3.261,10.288-6.521,16.302-9.854c3.673-1.824,8.115-0.931,10.796,2.173c1.584,2.058,2.193,4.703,1.667,7.245
		c-2.029,8.405-3.695,16.52-5.362,24.345l-0.145,3.478c-2.681,13.621-5.724,28.112-9.346,42.022
		c-3.623,13.912-7.246,25.648-11.375,38.835L258.678,1484.46z M290.919,1716.744l-8.694-3.188l-1.087-0.651l-0.724-1.231
		c-8.991-22.366-14.395-46.012-16.012-70.063c-0.551-7.23-0.721-14.486-0.507-21.736c0.08-4.612,3.863-8.3,8.478-8.26
		c2.114-0.027,4.161,0.75,5.723,2.174c7.246,6.811,14.491,13.26,21.736,19.418l1.667,1.521c9.854,8.767,20.214,18.186,29.996,27.677
		c9.781,9.491,19.127,19.78,29.633,31.228c2.753,2.971,5.579,5.941,8.332,8.984l0.797,0.869c0.27,0.155,0.601,0.155,0.87,0
		c11.188-0.228,22.348-1.22,33.401-2.971c1.98-0.288,3.352-2.126,3.064-4.106c-0.114-0.778-0.477-1.498-1.036-2.052
		c-7.245-7.246-13.911-14.49-21.736-23.04l-3.405-3.913c-8.549-9.273-17.823-19.2-27.314-28.546
		c-9.491-9.347-18.62-17.606-27.895-25.938l-5.145-4.638c-11.085-9.925-21.736-19.2-32.313-29.633
		c-4.854-4.492-9.637-9.273-14.491-14.056c-2.275-2.422-3.198-5.815-2.463-9.057c1.521-6.521,3.115-12.969,4.854-19.2
		c3.768-14.057,7.897-27.169,11.448-38.4l2.318-7.68c4.492-13.259,8.477-25.721,11.738-38.979
		c3.26-13.259,6.593-27.967,9.853-43.472l1.305-6.376c2.391-11.085,5.072-23.692,8.332-36.734
		c1.376-5.723,3.043-12.172,5.072-19.055c0.976-3.248,3.5-5.8,6.738-6.811c5.651-1.812,10.94-3.261,15.795-4.709l3.115-0.87
		c15.36-3.984,29.778-7.245,43.037-10.216l5.361-1.231c13.187-3.043,25.576-5.94,37.966-9.347
		c12.389-3.405,26.083-7.897,38.617-11.883l4.057-1.304c13.114-4.347,27.17-8.984,42.095-13.404
		c8.767-2.463,15.868-4.347,22.461-5.868c16.31-3.92,32.905-6.537,49.63-7.825c6.086-0.507,12.172-0.796,18.112-0.796
		c4.855,0,9.709,0,14.491,0c24.001,1.253,47.65,6.316,70.063,14.997c0.986,0.326,1.78,1.066,2.173,2.028
		c9.09,22.343,14.544,45.995,16.157,70.063c0.435,6.811,0.58,13.983,0.435,21.736c0.062,4.682-3.683,8.526-8.365,8.588
		c-2.296,0.03-4.507-0.872-6.126-2.502c-7.245-6.812-14.491-13.259-21.736-19.418l-3.622-3.26
		c-9.854-8.84-19.2-17.316-28.039-25.866c-8.84-8.549-17.824-18.476-27.098-28.401l-2.753-2.971l-5.94-6.521l-1.594-1.956
		c-0.588-0.549-1.372-0.836-2.174-0.798c-10.922,0.258-21.815,1.25-32.604,2.971c-2.014,0.336-3.374,2.239-3.038,4.252
		c0.119,0.714,0.444,1.377,0.937,1.907c6.303,6.594,12.389,13.187,19.2,20.359l5.579,6.158c8.839,9.491,17.968,19.345,27.532,28.98
		c9.564,9.637,21.157,19.998,31.735,29.488l5,4.348l3.912,3.623c8.042,7.245,16.375,14.49,24.852,22.895
		c4.854,4.638,10.36,10.145,16.157,16.303c0.806,0.909,1.152,2.136,0.941,3.332c-1.667,7.753-3.55,15.288-5.579,22.533
		c-3.984,14.49-8.115,28.185-12.099,41.081l-0.942,3.043c-4.347,13.983-8.477,27.242-12.1,41.081
		c-3.623,13.838-6.376,27.17-9.782,43.472l-1.738,8.333c-2.391,11.157-4.927,22.749-7.898,34.922
		c-1.594,6.666-3.623,14.128-6.086,22.388c-0.399,1.141-1.312,2.026-2.463,2.391c-8.042,2.536-15.577,4.71-21.736,6.448
		c-15.36,4.058-29.851,7.246-42.892,10.289l-2.101,0.434c-13.549,3.116-27.605,6.305-41.443,10.071
		c-13.839,3.769-27.75,8.405-41.443,12.607l-0.435,0.362l-6.81,2.245c-11.52,3.769-23.403,7.681-36.227,11.376h-0.87
		c-5.071,1.521-12.824,3.695-21.736,5.724c-16.296,3.864-32.863,6.48-49.558,7.825c-6.014,0.507-12.172,0.797-18.113,0.797
		s-9.854,0-14.49,0l-9.202-0.652l-8.115-0.941l-2.463-0.363l-6.811-1.811c-0.458,0.044-0.919,0.044-1.376,0
		c-2.174,0-4.347-0.797-6.376-1.305c-4.057-0.724-8.115-1.666-12.027-2.681c-4.709-1.086-10.216-2.681-16.012-4.637H290.919z
		 M507.481,1821.729c-17.835,5.544-36.387,8.448-55.063,8.622c-15.513,0.137-30.978-1.738-46.008-5.579
		c-33.209-8.948-63.298-26.9-86.944-51.876c-2.337-2.434-2.994-6.028-1.667-9.129c1.343-3.094,4.38-5.109,7.752-5.145h1.377
		c7.897,1.159,16.084,2.029,24.127,2.463c5.579,0,11.303,0.436,17.026,0.362c17.544-0.229,35.04-1.901,52.311-4.999h1.449
		c1.881,0,3.712,0.61,5.217,1.739c18.034,14.782,37.671,27.493,58.542,37.894c7.246,3.332,14.491,6.593,22.243,9.563
		c3.396,1.315,5.599,4.621,5.506,8.261c-0.112,3.606-2.497,6.746-5.94,7.824H507.481z M619.566,1733.844
		c-12.615,19.593-28.239,37.075-46.297,51.804c-1.481,1.306-3.388,2.026-5.362,2.028h-1.376
		c-23.095-3.344-45.518-10.313-66.439-20.649c-6.811-3.332-13.331-7.245-19.417-10.578c-4.03-2.537-5.24-7.86-2.703-11.89
		c1.079-1.716,2.729-2.995,4.658-3.614c7.246-2.247,14.491-4.492,21.736-6.884l6.014-1.884c14.491-4.709,27.605-9.057,41.081-12.896
		c11.883-3.261,24.055-6.086,36.879-8.912l5.145-1.231c9.129-2.028,18.403-4.13,28.039-6.448c0.674-0.071,1.354-0.071,2.029,0
		c2.984-0.033,5.753,1.545,7.245,4.13c1.418,2.57,1.418,5.689,0,8.26c-3.55,6.303-7.39,12.752-11.302,18.766H619.566z
		 M751.358,1647.407c0.06-0.579,0.06-1.161,0-1.74c1.398-10.567,2.052-21.22,1.957-31.879c0.011-2-1.603-3.632-3.604-3.643
		c-0.76-0.003-1.502,0.231-2.121,0.672c-7.245,4.854-13.91,9.491-21.736,14.491c-5.579,3.767-11.954,7.68-18.91,11.521
		c-1.211,0.702-2.585,1.077-3.985,1.086c-2.643,0.058-5.162-1.121-6.81-3.188c-1.585-2.058-2.193-4.703-1.667-7.246
		c1.812-7.245,3.261-14.49,4.71-21.735l1.521-6.666c2.463-12.606,5.579-27.532,9.346-42.167c3.405-12.97,7.245-26.084,11.448-38.763
		l0.724-2.318c2.826-8.984,5.579-18.186,8.405-27.822c1.066-3.628,4.405-6.11,8.187-6.086c2.909,0.043,5.614,1.504,7.245,3.913
		c4.348,7.245,7.898,13.259,10.869,19.199c10.838,21.522,18.175,44.635,21.736,68.469c2.662,16.233,3.247,32.741,1.739,49.123
		c0,3.26-0.652,6.448-1.231,9.563c-9.872,74.722-65.188,135.413-138.675,152.151c-0.65,0.076-1.306,0.076-1.956,0
		c-3.132-0.077-5.944-1.934-7.246-4.781c-1.529-2.936-1.157-6.5,0.942-9.057c4.927-6.159,9.636-12.752,14.491-19.636
		c12.438-19.437,22.691-40.187,30.575-61.874c1.031-2.662,3.135-4.766,5.797-5.797c19.834-7.503,38.824-17.071,56.658-28.547
		l8.622-5.723c0.901-0.42,1.714-1.01,2.391-1.74L751.358,1647.407z M812.799,1512.21c-1.346,4.482-6.073,7.025-10.558,5.68
		c-2.494-0.75-4.505-2.604-5.455-5.028c-2.971-7.245-6.375-14.926-9.998-21.736c-10.631-20.499-23.483-39.767-38.328-57.455
		c-1.799-2.182-2.565-5.035-2.101-7.824c3.682-22.722,4.824-45.784,3.405-68.759c-0.725-8.549-1.594-16.736-2.825-24.127
		c-0.401-2.401,0.26-4.86,1.811-6.737c1.655-1.92,4.059-3.03,6.594-3.043c2.117-0.043,4.168,0.735,5.723,2.173
		c51.94,47.034,71.991,119.866,51.441,186.857H812.799z"/>
	<path fill="#0099FF" d="M257.519,1372.954l-1.667,1.16l-5.506,3.478c1.521-1.16,3.043-2.246,4.637-3.261L257.519,1372.954z"/>
</g>
</svg>
